<svg width="526" height="550" viewBox="0 0 526 550" fill="none" xmlns="http://www.w3.org/2000/svg">
<path d="M280 131.9C271.2 126 261.3 123.1 250.4 123.1C232.8 123.1 217.1 129.1 203.5 141.1C189.8 153.1 179.3 169.4 172 189.9C164.6 210.5 161 233.2 161 258C161 282.8 164.6 304.5 171.7 323.2C178.8 341.9 188.8 356.4 201.6 366.7C214.4 377 229.4 382.1 246.7 382.1C254.7 382.1 262.2 381 269.4 378.6C276.5 376.3 283.4 373.2 289.9 369.5C296.4 365.7 302.6 360.9 308.5 355V200.6C308.5 183.8 306 169.6 300.9 158.1C295.7 146.5 288.8 137.8 280 131.9Z" fill="#3081FA"/>
<path d="M511.2 301.3L453.1 359.2L425.7 384.7C422.2 387.4 405.5 401.5 398.2 407.3C359.3 438.7 308.2 434.5 308.2 434.5V424.8V418.8V368H306.9C293 387.3 278.4 401.9 263.1 411.8C247.8 421.7 229.8 426.6 209.2 426.6C190.7 426.6 173 421.1 156 410.2C139 399.3 125.1 383.1 114.4 361.7C103.7 340.3 98.3 314.9 98.3 285.5C98.3 255.7 104.9 227.6 118.1 201.4C131.3 175.2 149.8 154.2 173.6 138.7C197.3 123.2 223.9 115.4 253.3 115.4C265.1 115.4 277.7 116.8 291.1 119.5C304.5 122.2 317.1 125.7 328.9 129.9L368.6 118.6H370.5V341C370.5 352.3 371.8 361 374.3 366.8C376.7 372.5 381.4 376.7 388.2 379.5L453 318.2L514.7 260V259.7L524.5 250.4C521.6 206.9 510.6 167.6 491.6 132.3C469.1 90.6 437.9 58.2 398.1 34.9C358.5 11.6 313.2 0 262.3 0C212.1 0 167.3 11.6 127.8 34.9C88.3 58.1 57.2 90.6 34.3 132.3C11.4 173.9 0 221.3 0 274.4C0 327.6 11.4 375 34.3 416.6C57.2 458.3 88.3 490.9 127.8 514.5C167.3 538.1 212.1 549.9 262.3 549.9C313.2 549.9 358.6 538.1 398.4 514.5C438.2 490.9 469.4 458.2 491.9 416.6C512.4 378.6 523.5 335.9 525.4 288.4L511.2 301.3Z" fill="#3081FA"/>
</svg>
