<svg width="342" height="111" viewBox="0 0 342 111" fill="#ffffff" xmlns="http://www.w3.org/2000/svg">
    <path d="M199.269 89.7416C196.438 91.9946 193.463 93.6987 190.344 94.854C187.224 96.0383 183.614 96.6159 179.512 96.6159C174.342 96.6159 169.836 95.4606 165.995 93.1788C162.153 90.897 159.149 87.4887 157.012 83.0117C154.874 78.5636 153.806 73.2491 153.806 67.0679H199.586V62.6776C199.586 56.7276 198.402 51.7018 196.062 47.6004C193.723 43.4989 190.517 40.4083 186.473 38.2998C182.429 36.1913 177.808 35.1515 172.638 35.1515C166.601 35.1515 161.113 36.7401 156.174 39.9173C151.235 43.0945 147.365 47.4271 144.534 52.9438C141.703 58.4606 140.288 64.6128 140.288 71.4583C140.288 78.7658 141.79 85.178 144.823 90.6948C147.856 96.2116 151.986 100.457 157.243 103.432C162.5 106.408 168.363 107.881 174.804 107.881C180.552 107.881 185.635 106.667 190.026 104.212C194.416 101.786 198.662 98.0601 202.764 93.0921L199.269 89.7416ZM161.98 45.4341C164.695 43.4989 167.872 42.5168 171.482 42.5168C174.804 42.5168 177.635 43.3833 179.974 45.1452C182.314 46.9071 183.989 49.3911 185.029 52.5972C185.751 54.879 186.127 57.4208 186.127 60.1936H154.239C154.586 57.8829 155.105 55.7455 155.828 53.8392C157.185 50.171 159.236 47.3693 161.98 45.4341Z" fill="white"/>
    <path d="M236.095 103.895C233.496 103.577 231.503 103.144 230.145 102.537C228.499 101.815 227.401 100.688 226.852 99.1865C226.304 97.6845 226.044 95.4027 226.044 92.3988V1.24194H225.61L198.72 8.86723V10.918C202.244 10.918 204.901 11.2068 206.778 11.7845C208.627 12.3622 209.898 13.3442 210.591 14.7017C211.284 16.0593 211.602 18.0234 211.602 20.5651V92.3988C211.602 95.5183 211.371 97.8001 210.88 99.2731C210.389 100.746 209.32 101.844 207.674 102.566C206.027 103.288 203.37 103.808 199.788 104.097V106.147H236.268V104.097C236.933 104.039 235.518 103.981 236.095 103.895Z" fill="white"/>
    <path d="M261.686 99.1865C261.137 97.6846 260.878 95.4028 260.878 92.3989V1.24194H260.444L233.525 8.83835V10.8891C237.048 10.8891 239.706 11.1779 241.583 11.7556C243.432 12.3333 244.703 13.3153 245.396 14.6729C246.089 16.0304 246.407 17.9945 246.407 20.5362V92.37C246.407 95.4894 246.176 97.7712 245.685 99.2443C245.194 100.717 244.125 101.815 242.479 102.537C241.121 103.144 239.099 103.577 236.442 103.895C235.864 103.952 235.229 104.01 234.593 104.068V106.119H238.262H272.778V104.068C269.254 103.779 266.683 103.259 265.037 102.537C263.304 101.815 262.206 100.688 261.686 99.1865Z" fill="white"/>
    <path d="M336.293 52.655C333.318 47.1382 329.187 42.8634 323.931 39.7729C318.674 36.7112 312.666 35.1515 305.936 35.1515C299.293 35.1515 293.372 36.6823 288.173 39.7729C282.945 42.8345 278.843 47.1382 275.81 52.655C272.778 58.1718 271.276 64.4395 271.276 71.4583C271.276 78.477 272.778 84.7448 275.81 90.2615C278.843 95.7783 282.945 100.082 288.173 103.201C293.401 106.321 299.322 107.881 305.936 107.881C312.666 107.881 318.674 106.321 323.931 103.201C329.187 100.082 333.318 95.7783 336.293 90.2615C339.268 84.7448 340.741 78.477 340.741 71.4583C340.741 64.4395 339.268 58.1718 336.293 52.655ZM323.208 86.911C321.649 91.1569 319.396 94.3919 316.479 96.6448C313.561 98.8978 310.095 99.9953 306.08 99.9953C301.979 99.9953 298.455 98.84 295.48 96.5582C292.505 94.2764 290.252 90.9836 288.75 86.68C287.248 82.4052 286.468 77.3216 286.468 71.4583C286.468 65.5949 287.248 60.5691 288.808 56.3232C290.368 52.0773 292.621 48.8135 295.538 46.5317C298.455 44.2498 301.979 43.0945 306.08 43.0945C310.066 43.0945 313.532 44.221 316.479 46.445C319.396 48.6979 321.649 51.9329 323.208 56.1788C324.768 60.4247 325.548 65.5082 325.548 71.4583C325.548 77.5238 324.768 82.6651 323.208 86.911Z" fill="white"/>
    <path d="M112.127 64.5262L126.771 51.1242C130.381 47.7159 133.529 45.2608 136.216 43.8166C136.851 43.47 137.515 43.1523 138.237 42.8634C140.49 41.9392 143.119 41.2459 146.094 40.8127V40.7838C146.152 40.7838 146.18 40.7549 146.238 40.7549V36.9423H120.503V37H120.358V40.8127C122.294 41.2171 123.102 42.0836 122.785 43.4411C122.438 44.7986 120.965 46.705 118.337 49.1601L97.3381 69.1476H96.5583V1.53088H95.8362L75.7909 5.05469V8.86734C77.8416 9.06952 79.3436 9.38725 80.3256 9.8205C81.3077 10.2538 82.0009 11.0625 82.4341 12.2467C82.8674 13.431 83.0985 15.164 83.0985 17.5036V82.7229L68.0501 96.9626C66.4615 96.3271 65.3928 95.3451 64.8151 94.0164C64.2374 92.6589 63.9486 90.6659 63.9486 88.0086V36.3646H63.5153L54.3014 38.993C51.5575 38.011 48.6402 37.2022 45.5208 36.5668C42.4013 35.9313 39.4841 35.6136 36.7401 35.6136C29.9236 35.6136 23.7425 37.4044 18.2257 41.0149C12.7089 44.6253 8.43411 49.4778 5.34356 55.5722C2.28189 61.6667 0.722168 68.1655 0.722168 75.0976C0.722168 81.9142 1.96417 87.8353 4.44816 92.8033C6.93216 97.7713 10.1671 101.526 14.0953 104.068C18.0524 106.61 22.1539 107.881 26.4575 107.881C31.2233 107.881 35.4115 106.725 38.9642 104.443C42.5169 102.162 45.9251 98.7534 49.1312 94.2764H49.4201V106.061V107.447V109.7C49.4201 109.7 61.2624 110.682 70.303 103.375C71.9782 102.017 75.8775 98.7534 76.6863 98.1179L83.0407 92.1968V93.0633C83.0985 95.5762 83.0696 96.7315 83.0696 98.1179V100.053V102.595V106.061C83.0696 106.09 83.0985 106.119 83.1273 106.119H85.5825H102.797V102.306C100.949 102.017 99.5911 101.555 98.6957 100.92C97.8291 100.284 97.2226 99.2733 96.9337 97.858C96.6449 96.4427 96.5005 94.2186 96.5005 91.2147V78.7947L102.335 73.4512L130.15 106.119H148.578V105.83L112.127 64.5262ZM49.3912 92.2256C48.0337 93.5832 46.5895 94.7096 45.0875 95.5761C43.5856 96.4427 41.997 97.1648 40.3217 97.6847C38.6753 98.2335 36.9134 98.4934 35.0649 98.4934C31.0789 98.4934 27.584 97.3092 24.609 94.9118C21.634 92.5145 19.3233 89.164 17.648 84.8314C16.0016 80.4989 15.164 75.4442 15.164 69.6964C15.164 63.9485 16.0305 58.6917 17.7347 53.897C19.4388 49.1312 21.865 45.3474 25.0422 42.5457C28.2194 39.7729 31.8299 38.3865 35.9314 38.3865C38.4732 38.3865 40.755 39.0797 42.8057 40.4372C44.8564 41.7947 46.4739 43.8166 47.6293 46.5028C48.8135 49.189 49.3912 52.4817 49.3912 56.381V92.2256Z" fill="white"/>
</svg>
