<svg width="1023" height="767" viewBox="0 0 1023 767" fill="none" xmlns="http://www.w3.org/2000/svg">
<rect width="1022.67" height="767" fill="#FF755F"/>
<ellipse cx="536.013" cy="382.194" rx="301.015" ry="273.028" fill="white"/>
<path d="M532.282 206.06C521.336 198.721 509.021 195.114 495.463 195.114C473.571 195.114 454.043 202.577 437.126 217.503C420.085 232.43 407.025 252.705 397.944 278.204C388.74 303.827 384.262 332.063 384.262 362.911C384.262 393.759 388.74 420.751 397.571 444.011C406.403 467.271 418.841 485.307 434.763 498.119C450.684 510.931 469.342 517.274 490.861 517.274C500.812 517.274 510.141 515.906 519.097 512.921C527.928 510.06 536.511 506.204 544.596 501.602C552.681 496.875 560.393 490.905 567.732 483.566V291.513C567.732 270.616 564.622 252.953 558.278 238.649C551.81 224.22 543.228 213.399 532.282 206.06Z" fill="#FF755F"/>
<path d="M819.862 416.776L747.594 488.795L713.512 520.514C709.159 523.872 688.386 541.411 679.306 548.625C630.92 587.682 567.358 582.458 567.358 582.458V570.393V562.93V499.741H565.741C548.452 523.748 530.291 541.908 511.26 554.223C492.229 566.537 469.839 572.632 444.216 572.632C421.204 572.632 399.188 565.791 378.042 552.232C356.897 538.674 339.607 518.524 326.298 491.905C312.988 465.286 306.272 433.692 306.272 397.123C306.272 360.056 314.481 325.103 330.9 292.514C347.319 259.925 370.331 233.804 399.934 214.524C429.414 195.244 462.501 185.542 499.07 185.542C513.748 185.542 529.42 187.283 546.088 190.642C562.756 194 578.429 198.354 593.106 203.578L642.488 189.522H644.851V466.157C644.851 480.213 646.468 491.034 649.577 498.249C652.563 505.339 658.409 510.563 666.867 514.046L747.469 437.797L824.216 365.404V365.031L836.406 353.463C832.798 299.355 819.116 250.471 795.483 206.563C767.496 154.694 728.687 114.393 679.181 85.4108C629.925 56.4288 573.578 42 510.265 42C447.823 42 392.098 56.4288 342.966 85.4108C293.833 114.268 255.149 154.694 226.664 206.563C198.18 258.308 184 317.267 184 383.316C184 449.489 198.18 508.448 226.664 560.193C255.149 612.062 293.833 652.612 342.966 681.967C392.098 711.322 447.823 726 510.265 726C573.578 726 630.049 711.322 679.555 681.967C729.06 652.612 767.869 611.938 795.856 560.193C821.355 512.926 835.162 459.813 837.525 400.73L819.862 416.776Z" fill="#FF755F"/>
</svg>
