<svg width="654" height="684" viewBox="0 0 654 684" fill="none" xmlns="http://www.w3.org/2000/svg">
<ellipse cx="352.013" cy="340.194" rx="301.015" ry="273.028" fill="white"/>
<path d="M348.282 164.06C337.336 156.721 325.021 153.114 311.463 153.114C289.571 153.114 270.043 160.577 253.126 175.503C236.085 190.43 223.025 210.705 213.944 236.204C204.74 261.827 200.262 290.063 200.262 320.911C200.262 351.759 204.74 378.751 213.571 402.011C222.403 425.271 234.841 443.307 250.763 456.119C266.684 468.931 285.342 475.274 306.861 475.274C316.812 475.274 326.141 473.906 335.097 470.921C343.928 468.06 352.511 464.204 360.596 459.602C368.681 454.875 376.393 448.905 383.732 441.566V249.513C383.732 228.616 380.622 210.953 374.278 196.649C367.81 182.22 359.228 171.399 348.282 164.06Z" fill="#3081FA"/>
<path d="M635.862 374.776L563.594 446.795L529.512 478.514C525.159 481.872 504.386 499.411 495.306 506.625C446.92 545.682 383.358 540.458 383.358 540.458V528.393V520.93V457.741H381.741C364.452 481.748 346.291 499.908 327.26 512.223C308.229 524.537 285.839 530.632 260.216 530.632C237.204 530.632 215.188 523.791 194.042 510.232C172.897 496.674 155.607 476.524 142.298 449.905C128.988 423.286 122.272 391.692 122.272 355.123C122.272 318.056 130.481 283.103 146.9 250.514C163.319 217.925 186.331 191.804 215.934 172.524C245.414 153.244 278.501 143.542 315.07 143.542C329.748 143.542 345.42 145.283 362.088 148.642C378.756 152 394.429 156.354 409.106 161.578L458.488 147.522H460.851V424.157C460.851 438.213 462.468 449.034 465.577 456.249C468.563 463.339 474.409 468.563 482.867 472.046L563.469 395.797L640.216 323.404V323.031L652.406 311.463C648.798 257.355 635.116 208.471 611.483 164.563C583.496 112.694 544.687 72.3928 495.181 43.4108C445.925 14.4288 389.578 0 326.265 0C263.823 0 208.098 14.4288 158.966 43.4108C109.833 72.2684 71.1489 112.694 42.6645 164.563C14.18 216.308 0 275.267 0 341.316C0 407.489 14.18 466.448 42.6645 518.193C71.1489 570.062 109.833 610.612 158.966 639.967C208.098 669.322 263.823 684 326.265 684C389.578 684 446.049 669.322 495.555 639.967C545.06 610.612 583.869 569.938 611.856 518.193C637.355 470.926 651.162 417.813 653.525 358.73L635.862 374.776Z" fill="#3081FA"/>
</svg>
