<?xml version="1.0" encoding="utf-8"?>
<!-- Generator: Adobe Illustrator 27.3.1, SVG Export Plug-In . SVG Version: 6.00 Build 0)  -->
<svg version="1.1" id="Layer_1" xmlns="http://www.w3.org/2000/svg" xmlns:xlink="http://www.w3.org/1999/xlink" x="0px" y="0px"
	 viewBox="0 0 527.4 552" style="enable-background:new 0 0 527.4 552;" xml:space="preserve">
<style type="text/css">
	.st0{fill:#001338;}
	.st1{fill:#FFFFFF;}
	.st2{fill:none;}
	.st3{fill:#E5E5E5;}
	.st4{fill:#3081FA;}
	.st5{fill:#161616;}
</style>
<g>
	<g>
		<g>
			<path class="st5" d="M281,132.9c-8.8-5.9-18.7-8.8-29.6-8.8c-17.6,0-33.3,6-46.9,18c-13.7,12-24.2,28.3-31.5,48.8
				c-7.4,20.6-11,43.3-11,68.1c0,24.8,3.6,46.5,10.7,65.2c7.1,18.7,17.1,33.2,29.9,43.5c12.8,10.3,27.8,15.4,45.1,15.4
				c8,0,15.5-1.1,22.7-3.5c7.1-2.3,14-5.4,20.5-9.1c6.5-3.8,12.7-8.6,18.6-14.5V201.6c0-16.8-2.5-31-7.6-42.5
				C296.7,147.5,289.8,138.8,281,132.9z"/>
		</g>
		<g>
			<path class="st5" d="M512.2,302.3L512.2,302.3l-58.1,57.9l-27.4,25.5c-3.5,2.7-20.2,16.8-27.5,22.6c-38.9,31.4-90,27.2-90,27.2
				v-9.7v-6V369h-1.3c-13.9,19.3-28.5,33.9-43.8,43.8c-15.3,9.9-33.3,14.8-53.9,14.8c-18.5,0-36.2-5.5-53.2-16.4
				c-17-10.9-30.9-27.1-41.6-48.5c-10.7-21.4-16.1-46.8-16.1-76.2c0-29.8,6.6-57.9,19.8-84.1c13.2-26.2,31.7-47.2,55.5-62.7
				c23.7-15.5,50.3-23.3,79.7-23.3c11.8,0,24.4,1.4,37.8,4.1c13.4,2.7,26,6.2,37.8,10.4l39.7-11.3h1.9v222.4c0,11.3,1.3,20,3.8,25.8
				c2.4,5.7,7.1,9.9,13.9,12.7l64.8-61.3l61.7-58.2l0-0.3l9.8-9.3c-2.9-43.5-13.9-82.8-32.9-118.1c-22.5-41.7-53.7-74.1-93.5-97.4
				C359.5,12.6,314.2,1,263.3,1c-50.2,0-95,11.6-134.5,34.9c-39.5,23.2-70.6,55.7-93.5,97.4C12.4,174.9,1,222.3,1,275.4
				C1,328.6,12.4,376,35.3,417.6c22.9,41.7,54,74.3,93.5,97.9c39.5,23.6,84.3,35.4,134.5,35.4c50.9,0,96.3-11.8,136.1-35.4
				c39.8-23.6,71-56.3,93.5-97.9c20.5-38,31.6-80.7,33.5-128.2L512.2,302.3z"/>
		</g>
	</g>
</g>
</svg>
