<?xml version="1.0" encoding="utf-8"?>
<!-- Generator: Adobe Illustrator 27.3.1, SVG Export Plug-In . SVG Version: 6.00 Build 0)  -->
<svg version="1.1" id="Layer_1" xmlns="http://www.w3.org/2000/svg" xmlns:xlink="http://www.w3.org/1999/xlink" x="0px" y="0px"
	 viewBox="0 0 1182.1 384.3" style="enable-background:new 0 0 1182.1 384.3;" xml:space="preserve">
<style type="text/css">
	.st0{fill:#001338;}
	.st1{fill:#FFFFFF;}
	.st2{fill:none;}
	.st3{fill:#E5E5E5;}
	.st4{fill:#3081FA;}
	.st5{fill:#161616;}
</style>
<path class="st2" d="M148.2,140.1c-7.1-4.7-15-7.1-23.8-7.1c-14.2,0-26.8,4.8-37.7,14.4c-11,9.6-19.4,22.7-25.3,39.3
	c-5.9,16.5-8.9,34.8-8.9,54.7c0,19.9,2.9,37.4,8.6,52.4c5.7,15,13.8,26.7,24.1,34.9c10.3,8.3,22.4,12.4,36.2,12.4
	c6.4,0,12.5-0.9,18.2-2.8c5.7-1.9,11.2-4.3,16.5-7.3c5.2-3,10.2-6.9,14.9-11.6V195.3c0-13.5-2-24.9-6.1-34.2
	C160.9,151.8,155.3,144.8,148.2,140.1z"/>
<g>
	<g>
		<path class="st3" d="M689.9,310.7c-9.8,7.8-20.1,13.7-30.9,17.7c-10.8,4.1-23.3,6.1-37.5,6.1c-17.9,0-33.5-4-46.8-11.9
			c-13.3-7.9-23.7-19.7-31.1-35.2c-7.4-15.4-11.1-33.8-11.1-55.2h158.5V217c0-20.6-4.1-38-12.2-52.2c-8.1-14.2-19.2-24.9-33.2-32.2
			c-14-7.3-30-10.9-47.9-10.9c-20.9,0-39.9,5.5-57,16.5c-17.1,11-30.5,26-40.3,45.1c-9.8,19.1-14.7,40.4-14.7,64.1
			c0,25.3,5.2,47.5,15.7,66.6c10.5,19.1,24.8,33.8,43,44.1c18.2,10.3,38.5,15.4,60.8,15.4c19.9,0,37.5-4.2,52.7-12.7
			c15.2-8.4,29.9-21.3,44.1-38.5L689.9,310.7z M560.8,157.3c9.4-6.7,20.4-10.1,32.9-10.1c11.5,0,21.3,3,29.4,9.1
			c8.1,6.1,13.9,14.7,17.5,25.8c2.5,7.9,3.8,16.7,3.8,26.3H534c1.2-8,3-15.4,5.5-22C544.2,173.7,551.3,164,560.8,157.3z"/>
	</g>
</g>
<g>
	<path class="st3" d="M817.4,359.7c-9-1.1-15.9-2.6-20.6-4.7c-5.7-2.5-9.5-6.4-11.4-11.6c-1.9-5.2-2.8-13.1-2.8-23.5V4.3h-1.5
		L688,30.7v7.1c12.2,0,21.4,1,27.9,3c6.4,2,10.8,5.4,13.2,10.1c2.4,4.7,3.5,11.5,3.5,20.3v248.7c0,10.8-0.8,18.7-2.5,23.8
		c-1.7,5.1-5.4,8.9-11.1,11.4c-5.7,2.5-14.9,4.3-27.3,5.3v7.1H818v-7.1C820.3,360.2,815.4,360,817.4,359.7z"/>
</g>
<g>
	<path class="st3" d="M906,343.4c-1.9-5.2-2.8-13.1-2.8-23.5V4.3h-1.5l-93.2,26.3v7.1c12.2,0,21.4,1,27.9,3
		c6.4,2,10.8,5.4,13.2,10.1c2.4,4.7,3.5,11.5,3.5,20.3v248.7c0,10.8-0.8,18.7-2.5,23.8c-1.7,5.1-5.4,8.9-11.1,11.4
		c-4.7,2.1-11.7,3.6-20.9,4.7c-2,0.2-4.2,0.4-6.4,0.6v7.1h12.7h119.5v-7.1c-12.2-1-21.1-2.8-26.8-5.3
		C911.6,352.5,907.8,348.6,906,343.4z"/>
</g>
<g>
	<g>
		<path class="st3" d="M1164.3,182.3c-10.3-19.1-24.6-33.9-42.8-44.6c-18.2-10.6-39-16-62.3-16c-23,0-43.5,5.3-61.5,16
			c-18.1,10.6-32.3,25.5-42.8,44.6c-10.5,19.1-15.7,40.8-15.7,65.1s5.2,46,15.7,65.1c10.5,19.1,24.7,34,42.8,44.8
			c18.1,10.8,38.6,16.2,61.5,16.2c23.3,0,44.1-5.4,62.3-16.2c18.2-10.8,32.5-25.7,42.8-44.8c10.3-19.1,15.4-40.8,15.4-65.1
			S1174.6,201.4,1164.3,182.3z M1119,300.9c-5.4,14.7-13.2,25.9-23.3,33.7c-10.1,7.8-22.1,11.6-36,11.6c-14.2,0-26.4-4-36.7-11.9
			c-10.3-7.9-18.1-19.3-23.3-34.2c-5.2-14.8-7.9-32.4-7.9-52.7c0-20.3,2.7-37.7,8.1-52.4c5.4-14.7,13.2-26,23.3-33.9
			c10.1-7.9,22.3-11.9,36.5-11.9c13.8,0,25.8,3.9,36,11.6c10.1,7.8,17.9,19,23.3,33.7c5.4,14.7,8.1,32.3,8.1,52.9
			C1127.1,268.4,1124.4,286.2,1119,300.9z"/>
	</g>
</g>
<g>
	<g>
		<path class="st3" d="M388.2,223.4l50.7-46.4c12.5-11.8,23.4-20.3,32.7-25.3c2.2-1.2,4.5-2.3,7-3.3c7.8-3.2,16.9-5.6,27.2-7.1v-0.1
			c0.2,0,0.3-0.1,0.5-0.1v-13.2h-89.1v0.2h-0.5v13.2c6.7,1.4,9.5,4.4,8.4,9.1c-1.2,4.7-6.3,11.3-15.4,19.8l-72.7,69.2h-2.7V5.3h-2.5
			l-69.4,12.2v13.2c7.1,0.7,12.3,1.8,15.7,3.3c3.4,1.5,5.8,4.3,7.3,8.4s2.3,10.1,2.3,18.2v225.8l-52.1,49.3
			c-5.5-2.2-9.2-5.6-11.2-10.2c-2-4.7-3-11.6-3-20.8V125.9h-1.5l-31.9,9.1c-9.5-3.4-19.6-6.2-30.4-8.4c-10.8-2.2-20.9-3.3-30.4-3.3
			c-23.6,0-45,6.2-64.1,18.7c-19.1,12.5-33.9,29.3-44.6,50.4c-10.6,21.1-16,43.6-16,67.6c0,23.6,4.3,44.1,12.9,61.3
			c8.6,17.2,19.8,30.2,33.4,39c13.7,8.8,27.9,13.2,42.8,13.2c16.5,0,31-4,43.3-11.9c12.3-7.9,24.1-19.7,35.2-35.2h1v40.8v4.8v7.8
			c0,0,41,3.4,72.3-21.9c5.8-4.7,19.3-16,22.1-18.2l22-20.5l0,0l0,3c0.2,8.7,0.1,12.7,0.1,17.5v6.7v8.8v12c0,0.1,0.1,0.2,0.2,0.2
			h8.5h59.6v-13.2c-6.4-1-11.1-2.6-14.2-4.8c-3-2.2-5.1-5.7-6.1-10.6c-1-4.9-1.5-12.6-1.5-23v-43l20.2-18.5l96.3,113.1h63.8v-1
			L388.2,223.4z M171,319.3c-4.7,4.7-9.7,8.6-14.9,11.6c-5.2,3-10.7,5.5-16.5,7.3c-5.7,1.9-11.8,2.8-18.2,2.8
			c-13.8,0-25.9-4.1-36.2-12.4c-10.3-8.3-18.3-19.9-24.1-34.9c-5.7-15-8.6-32.5-8.6-52.4c0-19.9,3-38.1,8.9-54.7
			c5.9-16.5,14.3-29.6,25.3-39.3c11-9.6,23.5-14.4,37.7-14.4c8.8,0,16.7,2.4,23.8,7.1c7.1,4.7,12.7,11.7,16.7,21
			c4.1,9.3,6.1,20.7,6.1,34.2V319.3z"/>
	</g>
</g>
</svg>
